<?xml version="1.0" encoding="UTF-8"?>
<svg version="1.1" xmlns="http://www.w3.org/2000/svg" viewBox="0 0 95 95">
<path d="M0 0 C11.47560101 8.73265248 17.16726751 18.75033323 19.6875 32.8125 C20.96983494 44.21488363 17.73776372 56.15964737 10.81640625 65.27734375 C2.06976827 75.64546185 -8.08119455 81.85741898 -21.66015625 83.125 C-33.25125695 83.53575883 -43.9950587 80.8624224 -53.3125 73.8125 C-53.91578125 73.37164062 -54.5190625 72.93078125 -55.140625 72.4765625 C-63.36798744 66.00198597 -68.28861554 57.02288339 -70.3125 46.8125 C-71.81227566 32.85106909 -69.5610286 21.35533259 -61.3125 9.8125 C-60.61125 8.801875 -59.91 7.79125 -59.1875 6.75 C-44.55813026 -9.92384687 -17.96848265 -11.79610311 0 0 Z M-54.3125 14.8125 C-60.46517389 22.19879271 -62.74622186 31.49916686 -62.25 41 C-60.96891369 51.45311918 -55.77235066 60.45820481 -47.5625 67.0625 C-38.23434323 73.49207698 -29.59395955 74.95022681 -18.3125 73.8125 C-8.65673728 71.94802408 -1.73122982 66.36505258 4.31640625 58.765625 C9.88064239 50.46079494 11.84011348 41.74270842 10.6875 31.8125 C8.04435521 21.4025759 2.53560981 11.91714517 -6.84765625 6.29296875 C-23.62975345 -2.28344911 -41.50895273 0.74700146 -54.3125 14.8125 Z " fill="currentColor" transform="translate(73.3125,9.1875)"/>
<path d="M0 0 C2.5 2.0625 2.5 2.0625 4 5 C3.93977486 8.49305789 3.63658168 10.90366489 1.875 13.9375 C-1.18452459 15.6712306 -3.56817525 15.42145216 -7 15 C-9.4375 13.4375 -9.4375 13.4375 -11 11 C-11.56288002 7.05983987 -11.60396028 4.94217804 -9.4375 1.5625 C-6.03280512 -0.61999672 -3.96569988 -0.63734462 0 0 Z " fill="currentColor" transform="translate(46,54)"/>
<path d="M0 0 C2.9375 2.0625 2.9375 2.0625 5 5 C5 8.54361243 4.65850044 10.86591591 2.875 13.9375 C-0.18452459 15.6712306 -2.56817525 15.42145216 -6 15 C-8.4375 13.4375 -8.4375 13.4375 -10 11 C-10.56783945 7.02512383 -10.62340519 4.93510779 -8.375 1.5625 C-5.24316508 -0.49791771 -3.68455227 -0.6767545 0 0 Z " fill="currentColor" transform="translate(45,25)"/>
<path d="M0 0 C2 2 2 2 2.4375 5.875 C2.34597008 9.22499505 2.12783966 9.84584041 -0.125 12.5625 C-3.67206143 14.33603072 -5.2494556 14.14147004 -9 13 C-12 11 -12 11 -12.8125 7.625 C-13.07516581 2.5467944 -13.07516581 2.5467944 -11 0 C-6.83535548 -2.54506054 -4.35070249 -1.93364555 0 0 Z " fill="currentColor" transform="translate(64,41)"/>
</svg>
