<?xml version="1.0" encoding="UTF-8"?>
<svg version="1.1" xmlns="http://www.w3.org/2000/svg" viewBox="0 0 95 95">
<path d="M0 0 C8.03701186 6.54364817 13.43164591 15.18485539 15.6875 25.3203125 C16.70633381 35.86884438 16.83790146 46.82175281 11.6875 56.3203125 C11.26339844 57.1040625 10.83929688 57.8878125 10.40234375 58.6953125 C3.94317142 69.34664961 -5.46166044 75.52594588 -17 79.6328125 C-29.67065461 82.3057295 -42.03577983 80.38012341 -53.0859375 73.8203125 C-63.60748191 66.73211416 -70.21842352 57.64591614 -73.3125 45.3203125 C-73.74676821 42.05729724 -73.83780518 38.85966611 -73.8125 35.5703125 C-73.80677979 34.69850342 -73.80105957 33.82669434 -73.79516602 32.9284668 C-73.477656 21.35378345 -69.43150481 11.63456392 -61.3125 3.3203125 C-43.4930867 -12.82953415 -19.61154903 -14.24487514 0 0 Z M-57.5625 12.6328125 C-64.15940804 20.73963954 -66.11789579 30.088803 -65.3125 40.3203125 C-63.32925704 51.31218449 -57.3059453 59.83627422 -48.3125 66.3203125 C-39.14456055 71.80440719 -28.84528053 73.08030795 -18.38671875 70.63671875 C-8.160114 66.80373003 0.39170375 59.65517859 5 49.6953125 C8.94783029 39.94859456 8.80000571 30.0351373 4.6875 20.3203125 C-0.46713201 10.52490588 -8.5117609 3.18343504 -19.1015625 -0.26171875 C-34.34628661 -3.14367189 -47.12961676 1.36529861 -57.5625 12.6328125 Z " fill="currentColor" transform="translate(73.3125,9.6796875)"/>
<path d="M0 0 C2.5 0.5 2.5 0.5 4.13198853 2.2199707 C5.73072862 4.88454941 5.8796879 6.39334261 5.88818359 9.48046875 C5.89764008 10.46829346 5.90709656 11.45611816 5.9168396 12.47387695 C5.91076691 13.53437256 5.90469421 14.59486816 5.8984375 15.6875 C5.90274277 17.32948364 5.90274277 17.32948364 5.90713501 19.00463867 C5.90917552 21.31787636 5.90364662 23.6311313 5.89111328 25.94433594 C5.87506018 29.48672031 5.8909632 33.02796365 5.91015625 36.5703125 C5.90817382 38.81771085 5.90433014 41.0651085 5.8984375 43.3125 C5.90451019 44.37299561 5.91058289 45.43349121 5.9168396 46.52612305 C5.90738312 47.51394775 5.89792664 48.50177246 5.88818359 49.51953125 C5.88579681 50.38682861 5.88341003 51.25412598 5.88095093 52.14770508 C5.41597043 55.01886559 4.48949901 56.40324506 2.5 58.5 C0 59 0 59 -2.5 58.5 C-5.28751743 55.56220464 -5.87717858 53.51848499 -5.88818359 49.51953125 C-5.89764008 48.53170654 -5.90709656 47.54388184 -5.9168396 46.52612305 C-5.91076691 45.46562744 -5.90469421 44.40513184 -5.8984375 43.3125 C-5.90130768 42.21784424 -5.90417786 41.12318848 -5.90713501 39.99536133 C-5.90917552 37.68212364 -5.90364662 35.3688687 -5.89111328 33.05566406 C-5.87506018 29.51327969 -5.8909632 25.97203635 -5.91015625 22.4296875 C-5.90817382 20.18228915 -5.90433014 17.9348915 -5.8984375 15.6875 C-5.90451019 14.62700439 -5.91058289 13.56650879 -5.9168396 12.47387695 C-5.90738312 11.48605225 -5.89792664 10.49822754 -5.88818359 9.48046875 C-5.88579681 8.61317139 -5.88341003 7.74587402 -5.88095093 6.85229492 C-5.26337489 3.03888779 -3.85093353 0.77018671 0 0 Z " fill="currentColor" transform="translate(44.5,15.5)"/>
<path d="M0 0 C3.625 -0.1875 3.625 -0.1875 7 0 C8.8333284 3.13868735 9.25629981 5.44432568 9.265625 9.0625 C9.26820312 10.02414063 9.27078125 10.98578125 9.2734375 11.9765625 C9.26570313 12.97429688 9.25796875 13.97203125 9.25 15 C9.25773437 15.99773438 9.26546875 16.99546875 9.2734375 18.0234375 C9.27085938 18.98507813 9.26828125 19.94671875 9.265625 20.9375 C9.26336914 21.81277344 9.26111328 22.68804687 9.25878906 23.58984375 C8.98397638 26.14923126 8.28961635 27.79215631 7 30 C3.625 30.1875 3.625 30.1875 0 30 C-2.2380858 26.6428713 -2.25650054 25.48862636 -2.265625 21.5625 C-2.26820312 20.50289062 -2.27078125 19.44328125 -2.2734375 18.3515625 C-2.26570313 17.24554688 -2.25796875 16.13953125 -2.25 15 C-2.25773437 13.89398438 -2.26546875 12.78796875 -2.2734375 11.6484375 C-2.27085938 10.58882812 -2.26828125 9.52921875 -2.265625 8.4375 C-2.26336914 7.46683594 -2.26111328 6.49617188 -2.25878906 5.49609375 C-2 3 -2 3 0 0 Z " fill="currentColor" transform="translate(25,30)"/>
<path d="M0 0 C0.99 0.103125 1.98 0.20625 3 0.3125 C5.2380858 3.6696287 5.25650054 4.82387364 5.265625 8.75 C5.26820312 9.80960938 5.27078125 10.86921875 5.2734375 11.9609375 C5.26570313 13.06695312 5.25796875 14.17296875 5.25 15.3125 C5.25773437 16.41851562 5.26546875 17.52453125 5.2734375 18.6640625 C5.27085938 19.72367188 5.26828125 20.78328125 5.265625 21.875 C5.26336914 22.84566406 5.26111328 23.81632812 5.25878906 24.81640625 C5 27.3125 5 27.3125 3 30.3125 C-0.5625 30.5625 -0.5625 30.5625 -4 30.3125 C-6.70071153 27.61178847 -5.18565282 19.51579036 -5.1875 15.875 C-5.20586914 13.97524414 -5.20586914 13.97524414 -5.22460938 12.03710938 C-5.22654297 10.82990234 -5.22847656 9.62269531 -5.23046875 8.37890625 C-5.23457764 7.26459229 -5.23868652 6.15027832 -5.24291992 5.00219727 C-4.88640998 1.05479018 -3.89157849 0.40537276 0 0 Z " fill="currentColor" transform="translate(61,29.6875)"/>
</svg>
