<?xml version="1.0" encoding="UTF-8"?>
<svg version="1.1" xmlns="http://www.w3.org/2000/svg" viewBox="0 0 95 95">
<path d="M0 0 C6.40471207 4.23609904 10.88843265 9.55139775 13 17 C14.16207891 26.38235838 13.98127682 35.20621506 8 43 C2.07468657 49.68173642 -3.79768833 53.28049542 -12.66015625 54.30859375 C-21.39355678 54.71394145 -28.4671228 52.29746172 -35.3125 46.875 C-41.85093064 40.58855756 -44.28399672 34.42913732 -44.5 25.375 C-44.10435846 15.52352573 -41.94517926 10.19834985 -35.19140625 2.984375 C-25.34367261 -5.93300234 -11.33120629 -6.34321681 0 0 Z " fill="currentColor" transform="translate(63,22)"/>
<path d="M0 0 C9.82636316 8.00051865 14.98865795 18.56386914 16.4375 31.0078125 C17.34746415 44.79462778 13.31211214 56.26603669 4.3125 66.7578125 C-4.84329428 76.26341288 -15.75540937 80.46348826 -29 80.7578125 C-42.14564274 80.35249977 -52.63664447 75.46929617 -62.23828125 66.5546875 C-70.31835853 57.85072478 -73.90266284 47.29034007 -73.8125 35.5703125 C-73.80677979 34.69850342 -73.80105957 33.82669434 -73.79516602 32.9284668 C-73.477656 21.35378345 -69.43150481 11.63456392 -61.3125 3.3203125 C-43.4930867 -12.82953415 -19.61154903 -14.24487514 0 0 Z M-57.5625 12.6328125 C-64.15940804 20.73963954 -66.11789579 30.088803 -65.3125 40.3203125 C-63.32925704 51.31218449 -57.3059453 59.83627422 -48.3125 66.3203125 C-39.14456055 71.80440719 -28.84528053 73.08030795 -18.38671875 70.63671875 C-8.160114 66.80373003 0.39170375 59.65517859 5 49.6953125 C8.94783029 39.94859456 8.80000571 30.0351373 4.6875 20.3203125 C-0.46713201 10.52490588 -8.5117609 3.18343504 -19.1015625 -0.26171875 C-34.34628661 -3.14367189 -47.12961676 1.36529861 -57.5625 12.6328125 Z " fill="currentColor" transform="translate(76.3125,11.6796875)"/>
</svg>
